HIERARCHY
ROOT Hips
{
	OFFSET 0.000000 71.427986 0.000000
	CHANNELS 6 Xposition Yposition Zposition Xrotation Yrotation Zrotation
	JOINT Pelvis
	{
		OFFSET 0.000000 0.000000 0.000000
		CHANNELS 3 Xrotation Yrotation Zrotation
		JOINT LeftUpLeg
		{
			OFFSET 6.797100 -2.508499 -1.318700
			CHANNELS 3 Xrotation Yrotation Zrotation
			JOINT LeftLeg
			{
				OFFSET 0.069008 -29.241863 0.690200
				CHANNELS 3 Xrotation Yrotation Zrotation
				JOINT LeftFoot
				{
					OFFSET -0.069008 -29.568123 -0.266800
					CHANNELS 3 Xrotation Yrotation Zrotation
					JOINT LeftToeBase
					{
						OFFSET 3.145500 -8.631000 16.059900
						CHANNELS 3 Xrotation Yrotation Zrotation
						End Site
						{
							OFFSET 0.000000 18.501587 0.000000
						}
					}
				}
			}
			JOINT Left_ShortSleeve
			{
				OFFSET 0.265923 -10.480953 1.153800
				CHANNELS 3 Xrotation Yrotation Zrotation
				End Site
				{
					OFFSET 1.725763 19.823879 0.000000
				}
			}
		}
		JOINT RightUpLeg
		{
			OFFSET -6.797100 -2.508499 -1.318700
			CHANNELS 3 Xrotation Yrotation Zrotation
			JOINT RightLeg
			{
				OFFSET -0.082453 -29.241932 0.688000
				CHANNELS 3 Xrotation Yrotation Zrotation
				JOINT RightFoot
				{
					OFFSET 0.082453 -29.568058 -0.264600
					CHANNELS 3 Xrotation Yrotation Zrotation
					JOINT RightToeBase
					{
						OFFSET -3.115300 -8.682800 16.113400
						CHANNELS 3 Xrotation Yrotation Zrotation
						End Site
						{
							OFFSET 0.000000 18.567114 0.000000
						}
					}
				}
			}
			JOINT Right_ShortSleeve
			{
				OFFSET -0.265923 -10.480953 1.153800
				CHANNELS 3 Xrotation Yrotation Zrotation
				End Site
				{
					OFFSET -1.725766 19.823910 0.000000
				}
			}
		}
	}
	JOINT Spine
	{
		OFFSET 0.000000 13.368103 0.470500
		CHANNELS 3 Xrotation Yrotation Zrotation
		JOINT Spine1
		{
			OFFSET 0.147000 13.837402 0.538800
			CHANNELS 3 Xrotation Yrotation Zrotation
			JOINT Spine2
			{
				OFFSET 0.168000 16.242897 -1.435500
				CHANNELS 3 Xrotation Yrotation Zrotation
				JOINT Neck
				{
					OFFSET 0.217200 18.631500 -1.679100
					CHANNELS 3 Xrotation Yrotation Zrotation
					JOINT Head
					{
						OFFSET 0.000000 6.599396 1.385900
						CHANNELS 3 Xrotation Yrotation Zrotation
						JOINT Hat
						{
							OFFSET -0.532200 27.220596 -10.096100
							CHANNELS 3 Xrotation Yrotation Zrotation
							End Site
							{
								OFFSET 0.000000 22.029861 0.000000
							}
						}
						JOINT HairD
						{
							OFFSET -10.777400 17.437393 -1.325900
							CHANNELS 3 Xrotation Yrotation Zrotation
							JOINT HairD1
							{
								OFFSET -3.290299 -11.051193 1.062200
								CHANNELS 3 Xrotation Yrotation Zrotation
								End Site
								{
									OFFSET 0.000000 11.579437 0.000000
								}
							}
						}
						JOINT HairB
						{
							OFFSET -10.777400 17.437393 1.467900
							CHANNELS 3 Xrotation Yrotation Zrotation
							JOINT HairB1
							{
								OFFSET -1.561200 -12.956299 3.590200
								CHANNELS 3 Xrotation Yrotation Zrotation
								End Site
								{
									OFFSET 0.000000 13.534866 0.000000
								}
							}
						}
						JOINT HairA
						{
							OFFSET 9.713100 17.437393 1.467900
							CHANNELS 3 Xrotation Yrotation Zrotation
							JOINT HairA1
							{
								OFFSET 1.561200 -12.956299 3.590200
								CHANNELS 3 Xrotation Yrotation Zrotation
								End Site
								{
									OFFSET 0.000000 13.534866 0.000000
								}
							}
						}
						JOINT HairC
						{
							OFFSET 9.713100 17.437393 -1.325900
							CHANNELS 3 Xrotation Yrotation Zrotation
							JOINT HairC1
							{
								OFFSET 3.290300 -11.051193 1.062200
								CHANNELS 3 Xrotation Yrotation Zrotation
								End Site
								{
									OFFSET 0.000000 11.579437 0.000000
								}
							}
						}
					}
				}
				JOINT LeftShoulder
				{
					OFFSET 5.101800 15.108002 -2.763700
					CHANNELS 3 Xrotation Yrotation Zrotation
					JOINT LeftArm
					{
						OFFSET 9.825497 2.506317 -1.597400
						CHANNELS 3 Xrotation Yrotation Zrotation
						JOINT LeftForeArm
						{
							OFFSET 21.966244 0.000000 0.000000
							CHANNELS 3 Xrotation Yrotation Zrotation
							JOINT LeftHand
							{
								OFFSET 33.879036 0.000000 0.000000
								CHANNELS 3 Xrotation Yrotation Zrotation
								JOINT LeftHandThumb1
								{
									OFFSET 6.715286 -2.359680 3.363841
									CHANNELS 3 Xrotation Yrotation Zrotation
									JOINT LeftHandThumb2
									{
										OFFSET 2.507072 -1.447464 1.447461
										CHANNELS 3 Xrotation Yrotation Zrotation
										JOINT LeftHandThumb3
										{
											OFFSET 2.898338 -1.673355 1.673357
											CHANNELS 3 Xrotation Yrotation Zrotation
											End Site
											{
												OFFSET -0.295959 3.727692 -0.131651
											}
										}
									}
								}
								JOINT LeftHandIndex1
								{
									OFFSET 14.190811 -0.254547 3.840278
									CHANNELS 3 Xrotation Yrotation Zrotation
									JOINT LeftHandIndex2
									{
										OFFSET 3.551727 0.000000 -0.000000
										CHANNELS 3 Xrotation Yrotation Zrotation
										JOINT LeftHandIndex3
										{
											OFFSET 2.894196 0.000000 0.000000
											CHANNELS 3 Xrotation Yrotation Zrotation
											End Site
											{
												OFFSET -1.000603 2.690872 0.366626
											}
										}
									}
								}
								JOINT LeftHandMiddle1
								{
									OFFSET 13.776489 0.000000 0.000000
									CHANNELS 3 Xrotation Yrotation Zrotation
									JOINT LeftHandMiddle2
									{
										OFFSET 3.438232 0.000000 0.000000
										CHANNELS 3 Xrotation Yrotation Zrotation
										JOINT LeftHandMiddle3
										{
											OFFSET 3.691551 0.000000 0.000000
											CHANNELS 3 Xrotation Yrotation Zrotation
											End Site
											{
												OFFSET -1.082298 3.499527 0.457670
											}
										}
									}
								}
								JOINT LeftHandRing1
								{
									OFFSET 13.966164 -0.268127 -3.067488
									CHANNELS 3 Xrotation Yrotation Zrotation
									JOINT LeftHandRing2
									{
										OFFSET 3.162567 0.000000 0.000000
										CHANNELS 3 Xrotation Yrotation Zrotation
										JOINT LeftHandRing3
										{
											OFFSET 3.324348 0.000000 0.000000
											CHANNELS 3 Xrotation Yrotation Zrotation
											End Site
											{
												OFFSET -0.861900 3.184998 0.405154
											}
										}
									}
								}
								JOINT LeftHandPinky1
								{
									OFFSET 13.131393 -0.168503 -5.746925
									CHANNELS 3 Xrotation Yrotation Zrotation
									JOINT LeftHandPinky2
									{
										OFFSET 2.849182 0.000000 0.000000
										CHANNELS 3 Xrotation Yrotation Zrotation
										JOINT LeftHandPinky3
										{
											OFFSET 2.805038 0.000000 0.000000
											CHANNELS 3 Xrotation Yrotation Zrotation
											End Site
											{
												OFFSET -0.882500 2.642609 0.325652
											}
										}
									}
								}
							}
							JOINT Left_Sleeve
							{
								OFFSET 6.592125 -0.646545 0.805568
								CHANNELS 3 Xrotation Yrotation Zrotation
								End Site
								{
									OFFSET -0.000179 20.275787 -0.000000
								}
							}
						}
					}
				}
				JOINT RightShoulder
				{
					OFFSET -5.731700 15.108002 -2.763700
					CHANNELS 3 Xrotation Yrotation Zrotation
					JOINT RightArm
					{
						OFFSET -9.825497 2.506317 -1.597400
						CHANNELS 3 Xrotation Yrotation Zrotation
						JOINT RightForeArm
						{
							OFFSET -21.966242 0.000000 0.000000
							CHANNELS 3 Xrotation Yrotation Zrotation
							JOINT RightHand
							{
								OFFSET -33.879032 0.000000 0.000000
								CHANNELS 3 Xrotation Yrotation Zrotation
								JOINT RightHandThumb1
								{
									OFFSET -6.715286 -2.359680 3.363841
									CHANNELS 3 Xrotation Yrotation Zrotation
									JOINT RightHandThumb2
									{
										OFFSET -2.507072 -1.447464 1.447461
										CHANNELS 3 Xrotation Yrotation Zrotation
										JOINT RightHandThumb3
										{
											OFFSET -2.898338 -1.673355 1.673357
											CHANNELS 3 Xrotation Yrotation Zrotation
											End Site
											{
												OFFSET 0.295959 3.727692 -0.131651
											}
										}
									}
								}
								JOINT RightHandIndex1
								{
									OFFSET -14.190811 -0.254547 3.840278
									CHANNELS 3 Xrotation Yrotation Zrotation
									JOINT RightHandIndex2
									{
										OFFSET -3.551727 0.000000 -0.000000
										CHANNELS 3 Xrotation Yrotation Zrotation
										JOINT RightHandIndex3
										{
											OFFSET -2.894196 0.000000 0.000000
											CHANNELS 3 Xrotation Yrotation Zrotation
											End Site
											{
												OFFSET 1.000603 2.690872 0.366626
											}
										}
									}
								}
								JOINT RightHandMiddle1
								{
									OFFSET -13.776489 0.000000 0.000000
									CHANNELS 3 Xrotation Yrotation Zrotation
									JOINT RightHandMiddle2
									{
										OFFSET -3.438232 0.000000 0.000000
										CHANNELS 3 Xrotation Yrotation Zrotation
										JOINT RightHandMiddle3
										{
											OFFSET -3.691551 0.000000 0.000000
											CHANNELS 3 Xrotation Yrotation Zrotation
											End Site
											{
												OFFSET 1.082298 3.499527 0.457670
											}
										}
									}
								}
								JOINT RightHandRing1
								{
									OFFSET -13.966164 -0.268127 -3.067488
									CHANNELS 3 Xrotation Yrotation Zrotation
									JOINT RightHandRing2
									{
										OFFSET -3.162567 0.000000 0.000000
										CHANNELS 3 Xrotation Yrotation Zrotation
										JOINT RightHandRing3
										{
											OFFSET -3.324348 0.000000 0.000000
											CHANNELS 3 Xrotation Yrotation Zrotation
											End Site
											{
												OFFSET 0.861900 3.184998 0.405154
											}
										}
									}
								}
								JOINT RightHandPinky1
								{
									OFFSET -13.131393 -0.168503 -5.746925
									CHANNELS 3 Xrotation Yrotation Zrotation
									JOINT RightHandPinky2
									{
										OFFSET -2.849182 0.000000 0.000000
										CHANNELS 3 Xrotation Yrotation Zrotation
										JOINT RightHandPinky3
										{
											OFFSET -2.805038 0.000000 0.000000
											CHANNELS 3 Xrotation Yrotation Zrotation
											End Site
											{
												OFFSET 0.882500 2.642609 0.325652
											}
										}
									}
								}
							}
							JOINT Right_Sleeve
							{
								OFFSET -6.592125 -0.646545 0.805568
								CHANNELS 3 Xrotation Yrotation Zrotation
								End Site
								{
									OFFSET 0.000179 20.275787 -0.000000
								}
							}
						}
					}
				}
				JOINT Bind_Right_JacketString
				{
					OFFSET -3.534800 11.969597 7.200700
					CHANNELS 3 Xrotation Yrotation Zrotation
					JOINT Bind_Right_JacketString1
					{
						OFFSET -0.319900 -6.102600 2.794100
						CHANNELS 3 Xrotation Yrotation Zrotation
						End Site
						{
							OFFSET 0.000000 6.719452 0.000000
						}
					}
				}
				JOINT Bind_Left_JacketString
				{
					OFFSET 2.904800 11.969597 7.200700
					CHANNELS 3 Xrotation Yrotation Zrotation
					JOINT Bind_Left_JacketString1
					{
						OFFSET 0.364800 -5.904503 3.186800
						CHANNELS 3 Xrotation Yrotation Zrotation
						End Site
						{
							OFFSET 0.000000 6.719513 0.000000
						}
					}
				}
				JOINT HairE
				{
					OFFSET 5.915200 17.612701 -11.592200
					CHANNELS 3 Xrotation Yrotation Zrotation
					JOINT HairE1
					{
						OFFSET 0.289200 -7.171898 -1.284500
						CHANNELS 3 Xrotation Yrotation Zrotation
						End Site
						{
							OFFSET 0.000000 7.291756 0.000000
						}
					}
				}
				JOINT HairF
				{
					OFFSET -0.864800 17.612701 -11.592200
					CHANNELS 3 Xrotation Yrotation Zrotation
					JOINT HairF1
					{
						OFFSET 0.000000 -14.087097 -2.127501
						CHANNELS 3 Xrotation Yrotation Zrotation
						End Site
						{
							OFFSET 0.000000 14.246841 0.000000
						}
					}
				}
				JOINT HairG
				{
					OFFSET -8.087700 17.612701 -11.592200
					CHANNELS 3 Xrotation Yrotation Zrotation
					JOINT HairG1
					{
						OFFSET -0.293600 -6.081398 -0.910100
						CHANNELS 3 Xrotation Yrotation Zrotation
						End Site
						{
							OFFSET 0.000000 6.156120 0.000000
						}
					}
				}
			}
		}
	}
	JOINT Pouch
	{
		OFFSET 0.000000 4.394501 10.847300
		CHANNELS 3 Xrotation Yrotation Zrotation
		End Site
		{
			OFFSET 0.000000 21.880577 0.000000
		}
	}
	JOINT Bag
	{
		OFFSET -13.229000 4.813004 -0.593300
		CHANNELS 3 Xrotation Yrotation Zrotation
		End Site
		{
			OFFSET 0.000000 21.880577 0.000000
		}
	}
	JOINT OccupyGuyFacialAnim_Joint
	{
		OFFSET 1.000000 -70.206398 -1.655000
		CHANNELS 3 Xrotation Yrotation Zrotation
		End Site
		{
			OFFSET 0.000000 21.880577 0.000000
		}
	}
}
MOTION
Frames: 4
Frame Time: 0.033333
-0.386159 68.566757 1.630117 4.879300 -3.471131 9.180633 -0.000000 -0.000000 0.000001 -24.007910 -9.927461 -12.146901 15.150408 -5.461619 -6.809175 5.112662 -27.876563 7.113648 0.000000 0.000000 -0.000000 0.000001 0.000000 0.000001 1.285294 -15.446705 -12.759931 37.412108 4.164259 -5.516531 -19.936800 -2.774490 9.294529 -0.000002 -0.000000 -0.000000 0.000001 0.000001 -0.000000 1.773085 4.586243 0.627221 5.177707 9.319217 2.133665 5.034879 9.321732 2.400945 -1.845127 -1.005206 -1.922235 -8.331923 -2.917918 -12.037809 -0.000000 -0.000003 0.000000 -0.000000 -0.000003 0.000000 -0.000000 -0.000003 0.000000 -0.000000 -0.000003 -0.000000 -0.000000 -0.000001 -0.000000 -0.000000 -0.000003 -0.000000 -0.000000 -0.000001 -0.000000 -0.000000 -0.000003 0.000000 -0.000000 -0.000003 0.000000 0.691021 -0.874989 -14.226199 -18.744863 -25.288485 -72.307770 0.000064 -68.920761 0.000063 -36.056616 9.257105 42.116176 -10.930908 -6.748102 10.337267 -18.089411 8.879762 2.392687 -0.000000 -0.000002 -0.000001 5.890365 8.200090 -88.621814 6.193127 5.841066 -93.357648 0.000002 0.000001 -0.000005 7.765556 7.904043 -107.399500 4.299861 5.642386 -74.600781 0.000001 0.000003 0.000001 7.314696 8.035594 -105.795013 3.608021 5.405433 -67.422887 -0.000002 -0.000000 -0.000003 10.390449 6.780242 -113.877135 1.747962 4.174846 -45.422158 -0.000002 -0.000002 0.000003 0.000001 0.000000 0.000000 -0.133333 13.109092 18.148171 -38.704893 64.841465 69.860213 0.000006 37.971426 -0.000007 -24.338575 -7.627336 -15.970073 17.912448 17.120573 -32.483563 12.694436 -52.014278 20.210878 0.000001 0.000000 0.000001 0.276355 -8.899018 1.740145 5.888236 -4.491816 105.344221 -0.000003 0.000000 0.000000 4.166163 -8.600809 42.153192 7.050156 -3.996493 120.947132 0.000001 0.000001 0.000001 -0.361097 -4.549250 57.044234 4.703216 -4.656945 90.567099 -0.000000 -0.000001 0.000002 -5.324599 -0.292093 51.887298 3.526296 -4.518073 75.931589 -0.000001 0.000001 -0.000001 0.000003 -0.000001 0.000000 0.000000 0.000000 0.000001 0.000000 -0.000002 -0.000000 0.000000 0.000000 -0.000000 0.000000 0.000000 -0.000000 0.000000 0.000000 0.000001 0.000000 -0.000002 -0.000000 0.000000 0.000000 -0.000000 0.000000 0.000000 -0.000000 0.000000 0.000000 0.000001 0.000000 -0.000002 -0.000000 -0.000000 -0.000000 0.000001 -0.000000 -0.000000 0.000001 -0.000000 -0.000000 0.000001 
-0.264922 68.566574 1.706466 4.909630 -3.908355 9.216180 0.000000 -0.000000 -0.000000 -24.069566 -10.011261 -12.339444 15.333867 -5.189295 -6.624719 4.919158 -27.599247 7.090790 -0.000000 -0.000002 0.000000 -0.000000 -0.000002 -0.000000 0.854438 -15.356615 -13.352233 37.897591 4.163692 -5.306192 -19.699662 -2.269421 9.419288 -0.000001 -0.000001 0.000000 0.000000 0.000001 -0.000000 1.785580 4.575703 0.650222 5.132548 9.190211 2.136753 4.994414 9.191789 2.398447 -1.832727 -1.027598 -1.742343 -8.403215 -2.847381 -12.059035 0.000000 -0.000000 -0.000000 0.000000 -0.000000 -0.000000 0.000000 -0.000000 0.000000 0.000000 -0.000000 0.000000 0.000000 -0.000001 0.000000 0.000000 -0.000000 0.000000 0.000000 -0.000001 0.000000 0.000000 -0.000000 -0.000000 0.000000 -0.000000 -0.000000 0.692957 -0.860883 -14.297778 -18.469771 -25.371738 -72.222229 -0.000037 -69.091311 -0.000020 -36.226131 8.875582 42.801302 -10.930894 -6.748101 10.337217 -18.089244 8.879670 2.392690 0.000001 0.000001 0.000001 5.890295 8.200091 -88.621144 6.193061 5.841068 -93.356904 -0.000001 0.000000 -0.000000 7.765456 7.904050 -107.398653 4.299789 5.642371 -74.600207 0.000002 0.000001 0.000003 7.314610 8.035603 -105.794159 3.607965 5.405411 -67.422361 0.000000 0.000003 0.000001 10.390356 6.780325 -113.876261 1.747946 4.174815 -45.421806 -0.000002 0.000000 0.000003 0.000001 0.000001 0.000000 -0.147893 13.130698 18.305706 -37.755930 64.730037 69.107909 0.000017 38.558795 -0.000015 -24.120398 -7.759990 -15.768156 17.912222 17.120561 -32.483321 12.694320 -52.013899 20.210651 -0.000002 0.000000 -0.000000 0.276342 -8.898966 1.740168 5.888185 -4.491843 105.343360 0.000000 0.000002 -0.000001 4.166090 -8.600774 42.152898 7.050092 -3.996549 120.946162 -0.000000 0.000001 0.000001 -0.361106 -4.549216 57.043797 4.703147 -4.656963 90.566389 -0.000000 -0.000002 -0.000003 -5.324541 -0.292061 51.886919 3.526234 -4.518063 75.931035 -0.000000 0.000000 -0.000001 0.000001 -0.000001 -0.000001 -0.000000 -0.000001 -0.000001 0.000001 0.000001 -0.000000 -0.000000 -0.000001 -0.000000 -0.000000 -0.000001 -0.000000 -0.000000 -0.000001 -0.000001 0.000001 0.000001 -0.000000 -0.000000 -0.000001 -0.000000 -0.000000 -0.000001 -0.000000 -0.000000 -0.000001 -0.000001 0.000001 0.000001 -0.000000 0.000000 -0.000000 -0.000000 0.000000 -0.000000 -0.000000 0.000000 -0.000000 -0.000000 
-0.135737 68.571602 1.770111 4.937041 -4.373282 9.263506 -0.000000 0.000000 0.000000 -24.100159 -10.158778 -12.540039 15.404040 -4.841817 -6.450464 4.786806 -27.301576 7.057199 -0.000000 0.000002 -0.000000 0.000001 0.000002 -0.000000 0.484419 -15.358365 -14.038397 38.198666 4.330975 -5.055996 -19.493935 -1.699100 9.459246 -0.000000 -0.000002 0.000001 0.000002 -0.000001 0.000000 1.800333 4.558259 0.679869 5.090339 9.046994 2.150929 4.956748 9.047413 2.406964 -1.808780 -1.053816 -1.591323 -8.525108 -2.837573 -12.002551 0.000000 0.000001 0.000000 0.000000 0.000001 0.000000 0.000000 0.000001 0.000000 0.000000 0.000001 0.000000 0.000000 0.000001 0.000000 0.000000 0.000001 0.000000 0.000000 0.000001 0.000000 0.000000 0.000001 0.000000 0.000000 0.000001 0.000000 0.692246 -0.824312 -14.191286 -18.299028 -25.387137 -72.420339 -0.000018 -69.191701 -0.000017 -36.222494 8.424168 43.284971 -10.930873 -6.748098 10.337236 -18.089307 8.879589 2.392668 -0.000000 0.000001 -0.000001 5.890321 8.200083 -88.621247 6.193059 5.841083 -93.357020 0.000002 0.000002 -0.000003 7.765495 7.904051 -107.398789 4.299809 5.642368 -74.600310 0.000000 -0.000002 0.000002 7.314635 8.035598 -105.794303 3.607971 5.405411 -67.422471 0.000002 -0.000000 0.000002 10.390388 6.780300 -113.876377 1.747940 4.174818 -45.421882 -0.000000 0.000001 0.000003 -0.000001 0.000000 0.000000 -0.162352 13.150660 18.463072 -36.640905 64.779304 68.149531 0.000011 39.160244 -0.000004 -24.061042 -7.799127 -15.553002 17.912251 17.120557 -32.483369 12.694334 -52.013970 20.210699 0.000001 0.000004 -0.000002 0.276343 -8.898978 1.740169 5.888191 -4.491830 105.343517 0.000001 0.000001 0.000000 4.166097 -8.600777 42.152943 7.050100 -3.996547 120.946326 -0.000001 -0.000003 -0.000001 -0.361113 -4.549236 57.043868 4.703170 -4.656943 90.566505 0.000001 -0.000000 -0.000002 -5.324551 -0.292068 51.886980 3.526226 -4.518080 75.931111 0.000000 0.000001 0.000001 0.000001 -0.000000 -0.000001 0.000000 -0.000000 0.000000 0.000002 -0.000000 -0.000001 0.000000 -0.000000 0.000002 0.000000 -0.000000 0.000002 0.000000 -0.000000 0.000000 0.000002 -0.000000 -0.000001 0.000000 -0.000000 0.000002 0.000000 -0.000000 0.000002 0.000000 -0.000000 0.000000 0.000002 -0.000000 -0.000001 -0.000000 0.000000 0.000000 -0.000000 0.000000 0.000000 -0.000000 0.000000 0.000000 
-0.004080 68.576584 1.806705 4.957878 -4.845977 9.329704 -0.000000 -0.000000 -0.000000 -24.139330 -10.385786 -12.770345 15.398535 -4.456665 -6.266948 4.695732 -26.937735 6.985795 -0.000000 0.000000 -0.000000 -0.000000 0.000001 -0.000000 0.091848 -15.404061 -14.802504 38.468291 4.597449 -4.776017 -19.324804 -1.088397 9.433120 -0.000001 -0.000001 0.000000 -0.000000 -0.000001 -0.000000 1.822521 4.528806 0.713209 5.062326 8.883387 2.172946 4.933277 8.882406 2.423529 -1.812682 -1.077865 -1.470414 -8.566212 -2.867569 -11.889800 0.000000 -0.000001 0.000000 0.000000 -0.000001 0.000000 0.000000 -0.000001 -0.000000 0.000000 -0.000001 -0.000000 0.000000 -0.000001 0.000000 0.000000 -0.000001 -0.000000 0.000000 -0.000001 0.000000 0.000000 -0.000001 0.000000 0.000000 -0.000001 0.000000 0.691143 -0.808821 -14.106258 -18.106273 -25.319841 -72.585363 0.000038 -69.328524 0.000040 -36.081079 7.988998 43.604064 -10.930922 -6.748116 10.337262 -18.089346 8.879723 2.392668 -0.000001 0.000001 -0.000004 5.890333 8.200087 -88.621575 6.193108 5.841061 -93.357375 -0.000001 0.000003 -0.000005 7.765525 7.904046 -107.399199 4.299841 5.642371 -74.600583 0.000000 0.000000 -0.000001 7.314678 8.035595 -105.794713 3.607993 5.405435 -67.422703 -0.000001 0.000002 -0.000000 10.390426 6.780266 -113.876828 1.747954 4.174832 -45.422035 -0.000000 -0.000001 -0.000001 0.000002 -0.000000 0.000000 -0.179433 13.198801 18.616898 -35.672545 64.800723 67.312942 0.000001 39.684465 0.000001 -23.953443 -7.794246 -15.238169 17.912367 17.120573 -32.483461 12.694377 -52.014144 20.210798 -0.000002 0.000001 0.000002 0.276347 -8.899001 1.740168 5.888225 -4.491824 105.343934 0.000003 0.000001 -0.000001 4.166133 -8.600798 42.153107 7.050123 -3.996498 120.946791 0.000000 0.000000 -0.000001 -0.361106 -4.549247 57.044094 4.703188 -4.656948 90.566860 0.000001 -0.000001 0.000001 -5.324579 -0.292072 51.887188 3.526273 -4.518087 75.931397 -0.000001 0.000001 0.000001 0.000003 -0.000000 0.000000 0.000002 0.000001 0.000001 0.000003 -0.000001 -0.000000 0.000002 0.000001 0.000000 0.000002 0.000001 0.000000 0.000002 0.000001 0.000001 0.000003 -0.000001 -0.000000 0.000002 0.000001 0.000000 0.000002 0.000001 0.000000 0.000002 0.000001 0.000001 0.000003 -0.000001 -0.000000 -0.000000 -0.000000 -0.000000 -0.000000 -0.000000 -0.000000 -0.000000 -0.000000 -0.000000 
